<svg width="31" height="40" viewBox="0 0 31 40" fill="none" xmlns="http://www.w3.org/2000/svg">
<path fill-rule="evenodd" clip-rule="evenodd" d="M2.31665 26.8592L2.3103 26.8677L2.30415 26.8764C1.96131 27.3619 1.19333 27.5045 0.59274 27.0803C0.111968 26.7408 -0.0325575 25.9842 0.376835 25.3862C0.98767 24.6076 1.43129 23.6973 1.72266 22.8074C2.02599 21.881 2.16707 20.8282 2.16157 19.7958C2.15607 18.7633 2.0038 17.7121 1.69061 16.789C1.38978 15.9023 0.936492 14.9967 0.3174 14.2246C-0.0983371 13.6311 0.0381223 12.873 0.515252 12.5283C1.11129 12.0978 1.88075 12.2322 2.22873 12.714L2.23498 12.7226L2.24142 12.7311C3.01197 13.7472 3.64398 14.8761 4.02166 15.9837C4.41921 17.2866 4.67245 18.547 4.67903 19.7824C4.68595 21.0824 4.56173 22.3128 4.08468 23.5241C3.56513 24.8433 3.06201 25.8543 2.31665 26.8592ZM7.88796 29.2721L7.90302 29.2508L7.91684 29.2286C9.62468 26.4924 10.6098 23.1906 10.5914 19.7509C10.5731 16.312 9.55345 13.0217 7.81736 10.3042C7.44114 9.70755 7.61013 9.00213 8.24429 8.54404C8.67019 8.23639 9.46975 8.34532 9.94415 8.98109C11.9042 12.091 13.0882 15.8503 13.1089 19.7375C13.1303 23.7573 11.9873 27.3946 10.0587 30.5272C9.61254 31.1413 8.92951 31.3134 8.34052 30.9653C7.70198 30.4975 7.58526 29.7007 7.88796 29.2721ZM17.8855 4.89344L17.9024 4.92666L17.9219 4.95841C20.5778 9.28861 22.0538 14.2834 22.0826 19.6897C22.1114 25.0935 20.69 30.1016 18.0826 34.4584C17.6828 35.1012 17.008 35.2824 16.3238 34.9639C15.701 34.5581 15.5338 33.8856 15.859 33.2063C18.0765 29.2682 19.4554 24.6275 19.4292 19.7038C19.4031 14.8021 18.1213 10.1688 15.7107 6.23036C15.3845 5.55788 15.546 4.88813 16.1613 4.47766C16.9037 4.12303 17.6269 4.38296 17.8855 4.89344ZM25.7498 0.772479L25.7613 0.795177L25.774 0.817202C28.9926 6.38069 30.8836 12.7414 30.9203 19.6426C30.957 26.5368 29.1377 32.9112 25.9845 38.5045C25.5841 39.1399 24.9124 39.3178 24.2314 39.0009C23.6107 38.5964 23.4425 37.9268 23.7636 37.2497C26.8012 32.0654 28.437 26.0591 28.4029 19.656C28.3687 13.2364 26.5251 7.25338 23.5802 2.12023C23.2112 1.37089 23.4712 0.636997 23.9863 0.376034C24.7423 -0.00701197 25.4866 0.253007 25.7498 0.772479Z" fill="url(#paint0_linear_1730_4718)"/>
<defs>
<linearGradient id="paint0_linear_1730_4718" x1="15.4083" y1="0.242659" x2="15.6158" y2="39.2037" gradientUnits="userSpaceOnUse">
<stop stop-color="white" stop-opacity="0.73"/>
<stop offset="1" stop-color="white"/>
</linearGradient>
</defs>
</svg>
